<svg xmlns="http://www.w3.org/2000/svg" width="940" height="360" viewBox="0 0 940 360" role="img" aria-labelledby="title desc">
<title id="title">H2x CLI semantic pressure gate</title>
<desc id="desc">H2w and H2w without fallback reach eight of eight while H2u remains at three of eight strict.</desc>
<rect width="940" height="360" fill="#FFFFFF"/>
<text x="32" y="34" font-family="Arial, sans-serif" font-size="22" font-weight="700" fill="#111827">H2x isolates semantic preservation from fallback</text>
<line x1="82" y1="254" x2="820" y2="254" stroke="#111827" stroke-width="1"/>
<line x1="76" y1="254.0" x2="820" y2="254.0" stroke="#E5E7EB" stroke-width="1"/>
<text x="38" y="258.0" font-family="Arial, sans-serif" font-size="11" fill="#6B7280">0.0</text>
<line x1="76" y1="216.0" x2="820" y2="216.0" stroke="#E5E7EB" stroke-width="1"/>
<text x="38" y="220.0" font-family="Arial, sans-serif" font-size="11" fill="#6B7280">0.2</text>
<line x1="76" y1="178.0" x2="820" y2="178.0" stroke="#E5E7EB" stroke-width="1"/>
<text x="38" y="182.0" font-family="Arial, sans-serif" font-size="11" fill="#6B7280">0.4</text>
<line x1="76" y1="140.0" x2="820" y2="140.0" stroke="#E5E7EB" stroke-width="1"/>
<text x="38" y="144.0" font-family="Arial, sans-serif" font-size="11" fill="#6B7280">0.6</text>
<line x1="76" y1="102.0" x2="820" y2="102.0" stroke="#E5E7EB" stroke-width="1"/>
<text x="38" y="106.0" font-family="Arial, sans-serif" font-size="11" fill="#6B7280">0.8</text>
<line x1="76" y1="64.0" x2="820" y2="64.0" stroke="#E5E7EB" stroke-width="1"/>
<text x="38" y="68.0" font-family="Arial, sans-serif" font-size="11" fill="#6B7280">1.0</text>
<rect x="82" y="182.8" width="42" height="71.2" fill="#7C3AED"/>
<rect x="132" y="159.0" width="42" height="95.0" fill="#7C3AED" opacity="0.45"/>
<text x="84" y="174.8" font-family="Arial, sans-serif" font-size="12" fill="#111827">3/8</text>
<text x="134" y="151.0" font-family="Arial, sans-serif" font-size="12" fill="#111827">4/8</text>
<text x="74" y="282" font-family="Arial, sans-serif" font-size="12" font-weight="700" fill="#111827">H2u</text>
<rect x="262" y="182.8" width="42" height="71.2" fill="#A78BFA"/>
<rect x="312" y="159.0" width="42" height="95.0" fill="#A78BFA" opacity="0.45"/>
<text x="264" y="174.8" font-family="Arial, sans-serif" font-size="12" fill="#111827">3/8</text>
<text x="314" y="151.0" font-family="Arial, sans-serif" font-size="12" fill="#111827">4/8</text>
<text x="254" y="282" font-family="Arial, sans-serif" font-size="12" font-weight="700" fill="#111827">H2u no fallback</text>
<rect x="442" y="64.0" width="42" height="190.0" fill="#92400E"/>
<rect x="492" y="64.0" width="42" height="190.0" fill="#92400E" opacity="0.45"/>
<text x="444" y="56.0" font-family="Arial, sans-serif" font-size="12" fill="#111827">8/8</text>
<text x="494" y="56.0" font-family="Arial, sans-serif" font-size="12" fill="#111827">8/8</text>
<text x="434" y="282" font-family="Arial, sans-serif" font-size="12" font-weight="700" fill="#111827">H2w</text>
<rect x="622" y="64.0" width="42" height="190.0" fill="#D97706"/>
<rect x="672" y="64.0" width="42" height="190.0" fill="#D97706" opacity="0.45"/>
<text x="624" y="56.0" font-family="Arial, sans-serif" font-size="12" fill="#111827">8/8</text>
<text x="674" y="56.0" font-family="Arial, sans-serif" font-size="12" fill="#111827">8/8</text>
<text x="614" y="282" font-family="Arial, sans-serif" font-size="12" font-weight="700" fill="#111827">H2w no fallback</text>
<rect x="720" y="304" width="18" height="12" fill="#92400E"/>
<text x="744" y="315" font-family="Arial, sans-serif" font-size="12" fill="#374151">strict</text>
<rect x="720" y="324" width="18" height="12" fill="#92400E" opacity="0.45"/>
<text x="744" y="335" font-family="Arial, sans-serif" font-size="12" fill="#374151">executor-equivalent</text>
</svg>
