<svg xmlns="http://www.w3.org/2000/svg" width="780" height="340" viewBox="0 0 780 340" role="img" aria-labelledby="title desc">
<title id="title">H2k target/decoy overlap gate</title>
<desc id="desc">H2j and H2j without stale-selection gate pass H2k while H2e and H2h remain lower.</desc>
<rect width="780" height="340" fill="#FFFFFF"/>
<text x="32" y="34" font-family="Arial, sans-serif" font-size="22" font-weight="700" fill="#111827">H2k separates target normalization from prompt repair</text>
<line x1="96" y1="258" x2="660" y2="258" stroke="#111827" stroke-width="1"/>
<line x1="90" y1="258.0" x2="660" y2="258.0" stroke="#E5E7EB" stroke-width="1"/>
<text x="42" y="262.0" font-family="Arial, sans-serif" font-size="11" fill="#6B7280">0.0</text>
<line x1="90" y1="218.0" x2="660" y2="218.0" stroke="#E5E7EB" stroke-width="1"/>
<text x="42" y="222.0" font-family="Arial, sans-serif" font-size="11" fill="#6B7280">0.2</text>
<line x1="90" y1="178.0" x2="660" y2="178.0" stroke="#E5E7EB" stroke-width="1"/>
<text x="42" y="182.0" font-family="Arial, sans-serif" font-size="11" fill="#6B7280">0.4</text>
<line x1="90" y1="138.0" x2="660" y2="138.0" stroke="#E5E7EB" stroke-width="1"/>
<text x="42" y="142.0" font-family="Arial, sans-serif" font-size="11" fill="#6B7280">0.6</text>
<line x1="90" y1="98.0" x2="660" y2="98.0" stroke="#E5E7EB" stroke-width="1"/>
<text x="42" y="102.0" font-family="Arial, sans-serif" font-size="11" fill="#6B7280">0.8</text>
<line x1="90" y1="58.0" x2="660" y2="58.0" stroke="#E5E7EB" stroke-width="1"/>
<text x="42" y="62.0" font-family="Arial, sans-serif" font-size="11" fill="#6B7280">1.0</text>
<rect x="96" y="183.0" width="82" height="75.0" fill="#0891B2"/>
<text x="110" y="175.0" font-family="Arial, sans-serif" font-size="13" fill="#111827">3/8</text>
<text x="102" y="286" font-family="Arial, sans-serif" font-size="13" font-weight="700" fill="#111827">H2e</text>
<rect x="216" y="108.0" width="82" height="150.0" fill="#155E75"/>
<text x="230" y="100.0" font-family="Arial, sans-serif" font-size="13" fill="#111827">6/8</text>
<text x="222" y="286" font-family="Arial, sans-serif" font-size="13" font-weight="700" fill="#111827">H2h</text>
<rect x="336" y="58.0" width="82" height="200.0" fill="#2563EB"/>
<text x="350" y="50.0" font-family="Arial, sans-serif" font-size="13" fill="#111827">8/8</text>
<text x="342" y="286" font-family="Arial, sans-serif" font-size="13" font-weight="700" fill="#111827">H2j-no-stale</text>
<rect x="456" y="58.0" width="82" height="200.0" fill="#1D4ED8"/>
<text x="470" y="50.0" font-family="Arial, sans-serif" font-size="13" fill="#111827">8/8</text>
<text x="462" y="286" font-family="Arial, sans-serif" font-size="13" font-weight="700" fill="#111827">H2j</text>
</svg>
