<svg xmlns="http://www.w3.org/2000/svg" width="860" height="350" viewBox="0 0 860 350" role="img" aria-labelledby="title desc">
<title id="title">H2w semantic target preservation gate</title>
<desc id="desc">H2w reaches ten of ten strict and executor-equivalent on H2v.</desc>
<rect width="860" height="350" fill="#FFFFFF"/>
<text x="32" y="34" font-family="Arial, sans-serif" font-size="22" font-weight="700" fill="#111827">H2w closes H2v semantic target preservation</text>
<line x1="82" y1="254" x2="710" y2="254" stroke="#111827" stroke-width="1"/>
<line x1="76" y1="254.0" x2="710" y2="254.0" stroke="#E5E7EB" stroke-width="1"/>
<text x="38" y="258.0" font-family="Arial, sans-serif" font-size="11" fill="#6B7280">0.0</text>
<line x1="76" y1="216.0" x2="710" y2="216.0" stroke="#E5E7EB" stroke-width="1"/>
<text x="38" y="220.0" font-family="Arial, sans-serif" font-size="11" fill="#6B7280">0.2</text>
<line x1="76" y1="178.0" x2="710" y2="178.0" stroke="#E5E7EB" stroke-width="1"/>
<text x="38" y="182.0" font-family="Arial, sans-serif" font-size="11" fill="#6B7280">0.4</text>
<line x1="76" y1="140.0" x2="710" y2="140.0" stroke="#E5E7EB" stroke-width="1"/>
<text x="38" y="144.0" font-family="Arial, sans-serif" font-size="11" fill="#6B7280">0.6</text>
<line x1="76" y1="102.0" x2="710" y2="102.0" stroke="#E5E7EB" stroke-width="1"/>
<text x="38" y="106.0" font-family="Arial, sans-serif" font-size="11" fill="#6B7280">0.8</text>
<line x1="76" y1="64.0" x2="710" y2="64.0" stroke="#E5E7EB" stroke-width="1"/>
<text x="38" y="68.0" font-family="Arial, sans-serif" font-size="11" fill="#6B7280">1.0</text>
<rect x="82" y="197.0" width="42" height="57.0" fill="#0F766E"/>
<rect x="132" y="178.0" width="42" height="76.0" fill="#0F766E" opacity="0.45"/>
<text x="84" y="189.0" font-family="Arial, sans-serif" font-size="12" fill="#111827">3/10</text>
<text x="134" y="170.0" font-family="Arial, sans-serif" font-size="12" fill="#111827">4/10</text>
<text x="100" y="282" font-family="Arial, sans-serif" font-size="14" font-weight="700" fill="#111827">H2j</text>
<rect x="232" y="197.0" width="42" height="57.0" fill="#2563EB"/>
<rect x="282" y="178.0" width="42" height="76.0" fill="#2563EB" opacity="0.45"/>
<text x="234" y="189.0" font-family="Arial, sans-serif" font-size="12" fill="#111827">3/10</text>
<text x="284" y="170.0" font-family="Arial, sans-serif" font-size="12" fill="#111827">4/10</text>
<text x="250" y="282" font-family="Arial, sans-serif" font-size="14" font-weight="700" fill="#111827">H2r</text>
<rect x="382" y="178.0" width="42" height="76.0" fill="#7C3AED"/>
<rect x="432" y="159.0" width="42" height="95.0" fill="#7C3AED" opacity="0.45"/>
<text x="384" y="170.0" font-family="Arial, sans-serif" font-size="12" fill="#111827">4/10</text>
<text x="434" y="151.0" font-family="Arial, sans-serif" font-size="12" fill="#111827">5/10</text>
<text x="400" y="282" font-family="Arial, sans-serif" font-size="14" font-weight="700" fill="#111827">H2u</text>
<rect x="532" y="64.0" width="42" height="190.0" fill="#92400E"/>
<rect x="582" y="64.0" width="42" height="190.0" fill="#92400E" opacity="0.45"/>
<text x="534" y="56.0" font-family="Arial, sans-serif" font-size="12" fill="#111827">10/10</text>
<text x="584" y="56.0" font-family="Arial, sans-serif" font-size="12" fill="#111827">10/10</text>
<text x="550" y="282" font-family="Arial, sans-serif" font-size="14" font-weight="700" fill="#111827">H2w</text>
<rect x="650" y="300" width="18" height="12" fill="#92400E"/>
<text x="674" y="311" font-family="Arial, sans-serif" font-size="12" fill="#374151">strict</text>
<rect x="650" y="320" width="18" height="12" fill="#92400E" opacity="0.45"/>
<text x="674" y="331" font-family="Arial, sans-serif" font-size="12" fill="#374151">executor-equivalent</text>
</svg>
