<svg xmlns="http://www.w3.org/2000/svg" width="1120" height="602" viewBox="0 0 1120 602">
<rect width="100%" height="100%" fill="#FFFFFF"/>
<text x="20" y="35" font-size="20" font-family="Inter, Arial, sans-serif" font-weight="700" fill="#0F172A">H1q component-label guard transfer gate</text>
<style>text{font-family:Inter,Arial,sans-serif}</style>
<line x1="250.0" y1="55" x2="250.0" y2="557" stroke="#E5E7EB" stroke-width="1"/>
<text x="250.0" y="580" text-anchor="middle" font-size="12" fill="#475569">0</text>
<line x1="402.0" y1="55" x2="402.0" y2="557" stroke="#E5E7EB" stroke-width="1"/>
<text x="402.0" y="580" text-anchor="middle" font-size="12" fill="#475569">0.2</text>
<line x1="554.0" y1="55" x2="554.0" y2="557" stroke="#E5E7EB" stroke-width="1"/>
<text x="554.0" y="580" text-anchor="middle" font-size="12" fill="#475569">0.4</text>
<line x1="706.0" y1="55" x2="706.0" y2="557" stroke="#E5E7EB" stroke-width="1"/>
<text x="706.0" y="580" text-anchor="middle" font-size="12" fill="#475569">0.6</text>
<line x1="858.0" y1="55" x2="858.0" y2="557" stroke="#E5E7EB" stroke-width="1"/>
<text x="858.0" y="580" text-anchor="middle" font-size="12" fill="#475569">0.8</text>
<line x1="1010.0" y1="55" x2="1010.0" y2="557" stroke="#E5E7EB" stroke-width="1"/>
<text x="1010.0" y="580" text-anchor="middle" font-size="12" fill="#475569">1</text>
<text x="20" y="103" font-size="13" fill="#111827">argument_hints_v2</text>
<rect x="250" y="90" width="498.8" height="12" rx="2" fill="#DC2626"/>
<text x="1022" y="100" font-size="12" fill="#334155">exact: 0.656</text>
<rect x="250" y="108" width="546.2" height="12" rx="2" fill="#059669"/>
<text x="1022" y="118" font-size="12" fill="#334155">executor eq: 0.719</text>
<text x="20" y="175" font-size="13" fill="#111827">component_label_guard_v11</text>
<rect x="250" y="162" width="617.5" height="12" rx="2" fill="#DC2626"/>
<text x="1022" y="172" font-size="12" fill="#334155">exact: 0.812</text>
<rect x="250" y="180" width="688.8" height="12" rx="2" fill="#059669"/>
<text x="1022" y="190" font-size="12" fill="#334155">executor eq: 0.906</text>
<text x="20" y="247" font-size="13" fill="#111827">component_value_guard_v9</text>
<rect x="250" y="234" width="546.2" height="12" rx="2" fill="#DC2626"/>
<text x="1022" y="244" font-size="12" fill="#334155">exact: 0.719</text>
<rect x="250" y="252" width="593.8" height="12" rx="2" fill="#059669"/>
<text x="1022" y="262" font-size="12" fill="#334155">executor eq: 0.781</text>
<text x="20" y="319" font-size="13" fill="#111827">hybrid_label_guard_v8</text>
<rect x="250" y="306" width="546.2" height="12" rx="2" fill="#DC2626"/>
<text x="1022" y="316" font-size="12" fill="#334155">exact: 0.719</text>
<rect x="250" y="324" width="641.2" height="12" rx="2" fill="#059669"/>
<text x="1022" y="334" font-size="12" fill="#334155">executor eq: 0.844</text>
<text x="20" y="391" font-size="13" fill="#111827">no_call_control_rescue_v10</text>
<rect x="250" y="378" width="475.0" height="12" rx="2" fill="#DC2626"/>
<text x="1022" y="388" font-size="12" fill="#334155">exact: 0.625</text>
<rect x="250" y="396" width="522.5" height="12" rx="2" fill="#059669"/>
<text x="1022" y="406" font-size="12" fill="#334155">executor eq: 0.688</text>
<text x="20" y="463" font-size="13" fill="#111827">no_directive</text>
<rect x="250" y="450" width="237.5" height="12" rx="2" fill="#DC2626"/>
<text x="1022" y="460" font-size="12" fill="#334155">exact: 0.312</text>
<rect x="250" y="468" width="285.0" height="12" rx="2" fill="#059669"/>
<text x="1022" y="478" font-size="12" fill="#334155">executor eq: 0.375</text>
</svg>
