<svg xmlns="http://www.w3.org/2000/svg" width="980" height="370" viewBox="0 0 980 370" role="img" aria-labelledby="title desc">
<title id="title">H2o value-bearing target synthesis gate</title>
<desc id="desc">H2o repairs H2m value-bearing target exactness while preserving H2k, H2l, and H2f transfer gates.</desc>
<rect width="980" height="370" fill="#FFFFFF"/>
<text x="32" y="38" font-family="Arial, sans-serif" font-size="22" font-weight="700" fill="#111827">H2o synthesizes canonical value-bearing targets</text>
<line x1="78" y1="264" x2="884" y2="264" stroke="#111827" stroke-width="1"/>
<line x1="72" y1="264.0" x2="884" y2="264.0" stroke="#E5E7EB" stroke-width="1"/>
<text x="32" y="268.0" font-family="Arial, sans-serif" font-size="11" fill="#6B7280">0.0</text>
<line x1="72" y1="224.4" x2="884" y2="224.4" stroke="#E5E7EB" stroke-width="1"/>
<text x="32" y="228.4" font-family="Arial, sans-serif" font-size="11" fill="#6B7280">0.2</text>
<line x1="72" y1="184.8" x2="884" y2="184.8" stroke="#E5E7EB" stroke-width="1"/>
<text x="32" y="188.8" font-family="Arial, sans-serif" font-size="11" fill="#6B7280">0.4</text>
<line x1="72" y1="145.2" x2="884" y2="145.2" stroke="#E5E7EB" stroke-width="1"/>
<text x="32" y="149.2" font-family="Arial, sans-serif" font-size="11" fill="#6B7280">0.6</text>
<line x1="72" y1="105.6" x2="884" y2="105.6" stroke="#E5E7EB" stroke-width="1"/>
<text x="32" y="109.6" font-family="Arial, sans-serif" font-size="11" fill="#6B7280">0.8</text>
<line x1="72" y1="66.0" x2="884" y2="66.0" stroke="#E5E7EB" stroke-width="1"/>
<text x="32" y="70.0" font-family="Arial, sans-serif" font-size="11" fill="#6B7280">1.0</text>
<rect x="78" y="239.2" width="70" height="24.8" fill="#0891B2"/>
<text x="94" y="231.2" font-family="Arial, sans-serif" font-size="13" fill="#111827">1/8</text>
<text x="72" y="292" font-family="Arial, sans-serif" font-size="12" font-weight="700" fill="#111827">H2m H2e</text>
<rect x="192" y="189.8" width="70" height="74.2" fill="#1D4ED8"/>
<text x="208" y="181.8" font-family="Arial, sans-serif" font-size="13" fill="#111827">3/8</text>
<text x="186" y="292" font-family="Arial, sans-serif" font-size="12" font-weight="700" fill="#111827">H2m H2j</text>
<rect x="306" y="189.8" width="70" height="74.2" fill="#0E7490"/>
<text x="322" y="181.8" font-family="Arial, sans-serif" font-size="13" fill="#111827">3/8</text>
<text x="300" y="292" font-family="Arial, sans-serif" font-size="12" font-weight="700" fill="#111827">H2m H2n</text>
<rect x="420" y="90.8" width="70" height="173.2" fill="#0F766E"/>
<text x="436" y="82.8" font-family="Arial, sans-serif" font-size="13" fill="#111827">7/8</text>
<text x="414" y="292" font-family="Arial, sans-serif" font-size="12" font-weight="700" fill="#111827">H2m H2o</text>
<rect x="534" y="66.0" width="70" height="198.0" fill="#047857"/>
<text x="550" y="58.0" font-family="Arial, sans-serif" font-size="13" fill="#111827">8/8</text>
<text x="528" y="292" font-family="Arial, sans-serif" font-size="12" font-weight="700" fill="#111827">H2k H2o</text>
<rect x="648" y="66.0" width="70" height="198.0" fill="#166534"/>
<text x="664" y="58.0" font-family="Arial, sans-serif" font-size="13" fill="#111827">8/8</text>
<text x="642" y="292" font-family="Arial, sans-serif" font-size="12" font-weight="700" fill="#111827">H2l H2o</text>
<rect x="762" y="66.0" width="70" height="198.0" fill="#365314"/>
<text x="778" y="58.0" font-family="Arial, sans-serif" font-size="13" fill="#111827">10/10</text>
<text x="756" y="292" font-family="Arial, sans-serif" font-size="12" font-weight="700" fill="#111827">H2f H2o</text>
<text x="32" y="336" font-family="Arial, sans-serif" font-size="13" fill="#374151">H2o H2m strict: 7/8; remaining miss is contextual surface-type alias routing.</text>
</svg>
